<svg width="80" height="77" viewBox="0 0 80 77" fill="none" xmlns="http://www.w3.org/2000/svg">
<rect x="78.8672" y="75.2979" width="77.2057" height="74" transform="rotate(-180 78.8672 75.2979)" stroke="#6A6842" stroke-width="2"/>
<path fill-rule="evenodd" clip-rule="evenodd" d="M39.5694 57.1709C38.9245 57.1709 38.3059 56.9199 37.8499 56.4732C37.3938 56.0265 37.1376 55.4205 37.1376 54.7888L37.1377 27.1894L26.7006 37.4183C26.4745 37.6398 26.2061 37.8155 25.9107 37.9353C25.6153 38.0552 25.2986 38.1169 24.9789 38.1169C24.6591 38.1169 24.3425 38.0552 24.0471 37.9353C23.7517 37.8155 23.4833 37.6398 23.2572 37.4183C23.0311 37.1968 22.8518 36.9339 22.7294 36.6445C22.6071 36.3551 22.5441 36.045 22.5441 35.7317C22.5441 35.4185 22.6071 35.1084 22.7294 34.819C22.8518 34.5296 23.0311 34.2667 23.2572 34.0452L37.8477 19.7524C38.0736 19.5306 38.342 19.3546 38.6374 19.2345C38.9328 19.1144 39.2495 19.0526 39.5694 19.0526C39.8893 19.0526 40.206 19.1144 40.5014 19.2345C40.7968 19.3546 41.0652 19.5306 41.2911 19.7524L55.8816 34.0452C56.1077 34.2667 56.287 34.5296 56.4094 34.819C56.5317 35.1084 56.5947 35.4185 56.5947 35.7318C56.5947 36.045 56.5317 36.3551 56.4094 36.6445C56.287 36.9339 56.1077 37.1968 55.8816 37.4183C55.425 37.8656 54.8057 38.1169 54.1599 38.1169C53.8402 38.1169 53.5235 38.0552 53.2281 37.9353C52.9327 37.8155 52.6643 37.6398 52.4382 37.4183L42.0012 27.1894L42.0011 54.7888C42.0011 55.4205 41.7449 56.0265 41.2889 56.4732C40.8329 56.9199 40.2143 57.1709 39.5694 57.1709V57.1709Z" fill="#6A6842"/>
</svg>
