<svg width="45" height="45" viewBox="0 0 45 45" fill="none" xmlns="http://www.w3.org/2000/svg">
<g clip-path="url(#clip0_492_1387)">
<path d="M22.5002 7.72864L20.4836 5.65583C15.7502 0.790205 7.07082 2.46927 3.93769 8.58645C2.46676 11.4636 2.13488 15.6177 4.82082 20.9193C7.40832 26.024 12.7914 32.1383 22.5002 38.7983C32.2089 32.1383 37.5893 26.024 40.1796 20.9193C42.8655 15.6149 42.5364 11.4636 41.0627 8.58645C37.9296 2.46927 29.2502 0.787393 24.5168 5.65302L22.5002 7.72864ZM22.5002 42.1874C-20.6239 13.6911 9.22238 -8.55011 22.0052 3.21458C22.1739 3.36927 22.3399 3.52958 22.5002 3.69552C22.6589 3.52973 22.824 3.37023 22.9952 3.21739C35.7752 -8.55573 65.6243 13.6883 22.5002 42.1874Z" fill="#F39B9B"/>
</g>
<defs>
<clipPath id="clip0_492_1387">
<rect width="45" height="45" fill="white"/>
</clipPath>
</defs>
</svg>
