<svg width="1920" height="5286" viewBox="0 0 1920 5286" fill="none" xmlns="http://www.w3.org/2000/svg">
<path fill-rule="evenodd" clip-rule="evenodd" d="M1920 3121.5H0V5286H1920V3121.5Z" fill="#E9E3DA"/>
<path d="M-4 1494.8H1920V3230.01L1660.5 3164.95L672.5 3252.56L254 3335.19L-4 3230.01V1494.8Z" fill="#C7D4CB"/>
<path d="M-4 1494.8H1920V3230.01L1660.5 3164.95L672.5 3252.56L254 3335.19L-4 3230.01V1494.8Z" fill="#DCE1D9"/>
<path d="M1955 123.716L1121.83 202.265L1970 0.000121L1955 123.716Z" fill="#9CAF89"/>
<path fill-rule="evenodd" clip-rule="evenodd" d="M0 346.027L592.609 148.205L1230.18 181.256L1940 92.0198V1557.47L1590.31 1641.8L1127.84 1662.57H882.791L366.881 1500.96L0 1555.32V346.027Z" fill="#E9E3DA"/>
</svg>
